<svg width="24" height="24" viewBox="0 0 24 24" fill="none" xmlns="http://www.w3.org/2000/svg">
<path d="M14.2929 8.29289C13.9024 8.68342 13.9024 9.31658 14.2929 9.70711C14.6834 10.0976 15.3166 10.0976 15.7071 9.70711L20.7071 4.70711C21.0976 4.31658 21.0976 3.68342 20.7071 3.29289C20.3166 2.90237 19.6834 2.90237 19.2929 3.29289L14.2929 8.29289Z" fill="currentColor"/>
<path d="M3.29289 19.2929C2.90237 19.6834 2.90237 20.3166 3.29289 20.7071C3.68342 21.0976 4.31658 21.0976 4.70711 20.7071L9.70711 15.7071C10.0976 15.3166 10.0976 14.6834 9.70711 14.2929C9.31658 13.9024 8.68342 13.9024 8.29289 14.2929L3.29289 19.2929Z" fill="currentColor"/>
<path d="M20.7071 20.7071C21.0976 20.3166 21.0976 19.6834 20.7071 19.2929L15.7071 14.2929C15.3166 13.9024 14.6834 13.9024 14.2929 14.2929C13.9024 14.6834 13.9024 15.3166 14.2929 15.7071L19.2929 20.7071C19.6834 21.0976 20.3166 21.0976 20.7071 20.7071Z" fill="currentColor"/>
<path d="M9.70711 8.29289C10.0976 8.68342 10.0976 9.31658 9.70711 9.70711C9.31658 10.0976 8.68342 10.0976 8.29289 9.70711L3.29289 4.70711C2.90237 4.31658 2.90237 3.68342 3.29289 3.29289C3.68342 2.90237 4.31658 2.90237 4.70711 3.29289L9.70711 8.29289Z" fill="currentColor"/>
<path d="M9 10C9.55228 10 10 9.55228 10 9V4C10 3.44772 9.55228 3 9 3C8.44772 3 8 3.44772 8 4L8 8L4 8C3.44772 8 3 8.44772 3 9C3 9.55228 3.44772 10 4 10H9Z" fill="currentColor"/>
<path d="M10 15C10 14.7348 9.89464 14.4804 9.70711 14.2929C9.51957 14.1054 9.26522 14 9 14H4C3.44772 14 3 14.4477 3 15C3 15.5523 3.44772 16 4 16H8L8 20C8 20.5523 8.44772 21 9 21C9.55228 21 10 20.5523 10 20V15Z" fill="currentColor"/>
<path d="M14 15C14 14.7348 14.1054 14.4804 14.2929 14.2929C14.4804 14.1054 14.7348 14 15 14H20C20.5523 14 21 14.4477 21 15C21 15.5523 20.5523 16 20 16H16V20C16 20.5523 15.5523 21 15 21C14.4477 21 14 20.5523 14 20V15Z" fill="currentColor"/>
<path d="M14 9C14 9.55228 14.4477 10 15 10L20 10C20.5523 10 21 9.55228 21 9C21 8.44772 20.5523 8 20 8L16 8L16 4C16 3.44771 15.5523 3 15 3C14.4477 3 14 3.44771 14 4L14 9Z" fill="currentColor"/>
</svg>
