<svg width="27" height="40" viewBox="0 0 27 40" fill="none" xmlns="http://www.w3.org/2000/svg">
<g clip-path="url(#clip0_389_191)">
<path d="M0 33.3333C0 29.6514 3.02209 26.6666 6.75 26.6666H13.5V33.3333C13.5 37.0152 10.4779 40 6.75 40C3.02209 40 0 37.0152 0 33.3333Z" fill="#24CB71"/>
<path d="M13.5 0V13.3333H20.25C23.9779 13.3333 27 10.3486 27 6.66667C27 2.98478 23.9779 0 20.25 0H13.5Z" fill="#FF7237"/>
<path d="M20.1938 26.6667C23.9218 26.6667 26.9438 23.6819 26.9438 20C26.9438 16.3181 23.9218 13.3334 20.1938 13.3334C16.4659 13.3334 13.4438 16.3181 13.4438 20C13.4438 23.6819 16.4659 26.6667 20.1938 26.6667Z" fill="#00B6FF"/>
<path d="M0 6.66667C0 10.3486 3.02209 13.3333 6.75 13.3333H13.5V0H6.75C3.02209 0 0 2.98478 0 6.66667Z" fill="#FF3737"/>
<path d="M0 20C0 23.6819 3.02209 26.6667 6.75 26.6667H13.5V13.3334H6.75C3.02209 13.3334 0 16.3182 0 20Z" fill="#874FFF"/>
</g>
<defs>
<clipPath id="clip0_389_191">
<rect width="27" height="40" fill="white"/>
</clipPath>
</defs>
</svg>
