<svg width="24" height="24" viewBox="0 0 24 24" fill="none" xmlns="http://www.w3.org/2000/svg">
<path fill-rule="evenodd" clip-rule="evenodd" d="M9.61414 10.1427L4.61414 7.14268L5.38588 5.85645L10.3859 8.85645L9.61414 10.1427ZM19.3859 7.14268L14.3859 10.1427L13.6141 8.85645L18.6141 5.85645L19.3859 7.14268ZM11.25 17.4996V12.4996H12.75V17.4996H11.25Z" fill="black"/>
<path fill-rule="evenodd" clip-rule="evenodd" d="M12 17.75C11.5858 17.75 11.25 18.0858 11.25 18.5C11.25 18.9142 11.5858 19.25 12 19.25C12.4142 19.25 12.75 18.9142 12.75 18.5C12.75 18.0858 12.4142 17.75 12 17.75ZM9.75 18.5C9.75 17.2574 10.7574 16.25 12 16.25C13.2426 16.25 14.25 17.2574 14.25 18.5C14.25 19.7426 13.2426 20.75 12 20.75C10.7574 20.75 9.75 19.7426 9.75 18.5Z" fill="black"/>
<path fill-rule="evenodd" clip-rule="evenodd" d="M3.5 4.75C3.08579 4.75 2.75 5.08579 2.75 5.5C2.75 5.91421 3.08579 6.25 3.5 6.25C3.91421 6.25 4.25 5.91421 4.25 5.5C4.25 5.08579 3.91421 4.75 3.5 4.75ZM1.25 5.5C1.25 4.25736 2.25736 3.25 3.5 3.25C4.74264 3.25 5.75 4.25736 5.75 5.5C5.75 6.74264 4.74264 7.75 3.5 7.75C2.25736 7.75 1.25 6.74264 1.25 5.5Z" fill="black"/>
<path fill-rule="evenodd" clip-rule="evenodd" d="M20.5 4.75C20.0858 4.75 19.75 5.08579 19.75 5.5C19.75 5.91421 20.0858 6.25 20.5 6.25C20.9142 6.25 21.25 5.91421 21.25 5.5C21.25 5.08579 20.9142 4.75 20.5 4.75ZM18.25 5.5C18.25 4.25736 19.2574 3.25 20.5 3.25C21.7426 3.25 22.75 4.25736 22.75 5.5C22.75 6.74264 21.7426 7.75 20.5 7.75C19.2574 7.75 18.25 6.74264 18.25 5.5Z" fill="black"/>
<path fill-rule="evenodd" clip-rule="evenodd" d="M11.6323 7.09632C11.8606 6.96789 12.1394 6.96789 12.3677 7.09632L14.3677 8.22132C14.6039 8.35416 14.75 8.60405 14.75 8.875V11.125C14.75 11.396 14.6039 11.6458 14.3677 11.7787L12.3677 12.9037C12.1394 13.0321 11.8606 13.0321 11.6323 12.9037L9.6323 11.7787C9.39615 11.6458 9.25 11.396 9.25 11.125V8.875C9.25 8.60405 9.39615 8.35416 9.6323 8.22132L11.6323 7.09632ZM10.75 9.31364V10.6864L12 11.3895L13.25 10.6864V9.31364L12 8.61051L10.75 9.31364Z" fill="black"/>
</svg>
