<svg width="24" height="24" viewBox="0 0 24 24" fill="none" xmlns="http://www.w3.org/2000/svg">
<path fill-rule="evenodd" clip-rule="evenodd" d="M11.25 10.2002V5.2002H12.75V10.2002H11.25ZM9.61414 11.8433L4.61414 8.84332L5.38588 7.55708L10.3859 10.5571L9.61414 11.8433ZM19.3859 8.84332L14.3859 11.8433L13.6141 10.5571L18.6141 7.55708L19.3859 8.84332ZM10.3859 13.8433L5.38588 16.8433L4.61414 15.5571L9.61414 12.5571L10.3859 13.8433ZM18.6141 16.8433L13.6141 13.8433L14.3859 12.5571L19.3859 15.5571L18.6141 16.8433ZM11.25 19.2002V14.2002H12.75V19.2002H11.25Z" fill="black"/>
<path fill-rule="evenodd" clip-rule="evenodd" d="M10.8354 4.17074L4.83541 7.17074L4.16459 5.8291L10.1646 2.8291L10.8354 4.17074ZM13.8354 2.8291L19.8354 5.8291L19.1646 7.17074L13.1646 4.17074L13.8354 2.8291ZM4.25 8.99993V14.9999H2.75V8.99993H4.25ZM19.75 14.4999V8.99993H21.25V14.4999H19.75ZM10.1646 21.1707L4.16459 18.1707L4.83541 16.8291L10.8354 19.8291L10.1646 21.1707ZM19.3591 18.1583L13.8591 21.1583L13.1409 19.8415L18.6409 16.8415L19.3591 18.1583Z" fill="black"/>
<path fill-rule="evenodd" clip-rule="evenodd" d="M12 2.75C11.5858 2.75 11.25 3.08579 11.25 3.5C11.25 3.91421 11.5858 4.25 12 4.25C12.4142 4.25 12.75 3.91421 12.75 3.5C12.75 3.08579 12.4142 2.75 12 2.75ZM9.75 3.5C9.75 2.25736 10.7574 1.25 12 1.25C13.2426 1.25 14.25 2.25736 14.25 3.5C14.25 4.74264 13.2426 5.75 12 5.75C10.7574 5.75 9.75 4.74264 9.75 3.5Z" fill="black"/>
<path fill-rule="evenodd" clip-rule="evenodd" d="M12 19.75C11.5858 19.75 11.25 20.0858 11.25 20.5C11.25 20.9142 11.5858 21.25 12 21.25C12.4142 21.25 12.75 20.9142 12.75 20.5C12.75 20.0858 12.4142 19.75 12 19.75ZM9.75 20.5C9.75 19.2574 10.7574 18.25 12 18.25C13.2426 18.25 14.25 19.2574 14.25 20.5C14.25 21.7426 13.2426 22.75 12 22.75C10.7574 22.75 9.75 21.7426 9.75 20.5Z" fill="black"/>
<path fill-rule="evenodd" clip-rule="evenodd" d="M3.5 6.75C3.08579 6.75 2.75 7.08579 2.75 7.5C2.75 7.91421 3.08579 8.25 3.5 8.25C3.91421 8.25 4.25 7.91421 4.25 7.5C4.25 7.08579 3.91421 6.75 3.5 6.75ZM1.25 7.5C1.25 6.25736 2.25736 5.25 3.5 5.25C4.74264 5.25 5.75 6.25736 5.75 7.5C5.75 8.74264 4.74264 9.75 3.5 9.75C2.25736 9.75 1.25 8.74264 1.25 7.5Z" fill="black"/>
<path fill-rule="evenodd" clip-rule="evenodd" d="M20.5 6.75C20.0858 6.75 19.75 7.08579 19.75 7.5C19.75 7.91421 20.0858 8.25 20.5 8.25C20.9142 8.25 21.25 7.91421 21.25 7.5C21.25 7.08579 20.9142 6.75 20.5 6.75ZM18.25 7.5C18.25 6.25736 19.2574 5.25 20.5 5.25C21.7426 5.25 22.75 6.25736 22.75 7.5C22.75 8.74264 21.7426 9.75 20.5 9.75C19.2574 9.75 18.25 8.74264 18.25 7.5Z" fill="black"/>
<path fill-rule="evenodd" clip-rule="evenodd" d="M20.5 15.75C20.0858 15.75 19.75 16.0858 19.75 16.5C19.75 16.9142 20.0858 17.25 20.5 17.25C20.9142 17.25 21.25 16.9142 21.25 16.5C21.25 16.0858 20.9142 15.75 20.5 15.75ZM18.25 16.5C18.25 15.2574 19.2574 14.25 20.5 14.25C21.7426 14.25 22.75 15.2574 22.75 16.5C22.75 17.7426 21.7426 18.75 20.5 18.75C19.2574 18.75 18.25 17.7426 18.25 16.5Z" fill="black"/>
<path fill-rule="evenodd" clip-rule="evenodd" d="M3.5 15.75C3.08579 15.75 2.75 16.0858 2.75 16.5C2.75 16.9142 3.08579 17.25 3.5 17.25C3.91421 17.25 4.25 16.9142 4.25 16.5C4.25 16.0858 3.91421 15.75 3.5 15.75ZM1.25 16.5C1.25 15.2574 2.25736 14.25 3.5 14.25C4.74264 14.25 5.75 15.2574 5.75 16.5C5.75 17.7426 4.74264 18.75 3.5 18.75C2.25736 18.75 1.25 17.7426 1.25 16.5Z" fill="black"/>
<path fill-rule="evenodd" clip-rule="evenodd" d="M11.6323 9.09632C11.8606 8.96789 12.1394 8.96789 12.3677 9.09632L14.3677 10.2213C14.6039 10.3542 14.75 10.604 14.75 10.875V13.125C14.75 13.396 14.6039 13.6458 14.3677 13.7787L12.3677 14.9037C12.1394 15.0321 11.8606 15.0321 11.6323 14.9037L9.6323 13.7787C9.39615 13.6458 9.25 13.396 9.25 13.125V10.875C9.25 10.604 9.39615 10.3542 9.6323 10.2213L11.6323 9.09632ZM10.75 11.3136V12.6864L12 13.3895L13.25 12.6864V11.3136L12 10.6105L10.75 11.3136Z" fill="black"/>
</svg>
